<svg width="97" height="100" viewBox="0 0 97 100" fill="none" xmlns="http://www.w3.org/2000/svg">
<path d="M8.36364 42.9545V40.1364C10.8939 40.1364 12.6591 39.6061 13.6591 38.5455C14.6742 37.4848 15.1818 35.7121 15.1818 33.2273V25.9545C15.1818 23.8636 15.3788 22.053 15.7727 20.5227C16.1818 18.9924 16.8409 17.7273 17.75 16.7273C18.6591 15.7273 19.8712 14.9848 21.3864 14.5C22.9015 14.0151 24.7727 13.7727 27 13.7727V18.2273C25.2424 18.2273 23.8561 18.5 22.8409 19.0455C21.8409 19.5909 21.1288 20.4394 20.7045 21.5909C20.2955 22.7273 20.0909 24.1818 20.0909 25.9545V35.0455C20.0909 36.2273 19.9318 37.303 19.6136 38.2727C19.3106 39.2424 18.7424 40.0758 17.9091 40.7727C17.0758 41.4697 15.8864 42.0076 14.3409 42.3864C12.8106 42.7652 10.8182 42.9545 8.36364 42.9545ZM27 71.9545C24.7727 71.9545 22.9015 71.7121 21.3864 71.2273C19.8712 70.7424 18.6591 70 17.75 69C16.8409 68 16.1818 66.7348 15.7727 65.2045C15.3788 63.6742 15.1818 61.8636 15.1818 59.7727V52.5C15.1818 50.0152 14.6742 48.2424 13.6591 47.1818C12.6591 46.1212 10.8939 45.5909 8.36364 45.5909V42.7727C10.8182 42.7727 12.8106 42.9621 14.3409 43.3409C15.8864 43.7197 17.0758 44.2576 17.9091 44.9545C18.7424 45.6515 19.3106 46.4848 19.6136 47.4545C19.9318 48.4242 20.0909 49.5 20.0909 50.6818V59.7727C20.0909 61.5455 20.2955 63 20.7045 64.1364C21.1288 65.2727 21.8409 66.1136 22.8409 66.6591C23.8561 67.2197 25.2424 67.5 27 67.5V71.9545ZM8.36364 45.5909V40.1364H13.7273V45.5909H8.36364ZM86.0057 42.7727V45.5909C83.4754 45.5909 81.7027 46.1212 80.6875 47.1818C79.6875 48.2424 79.1875 50.0152 79.1875 52.5V59.7727C79.1875 61.8636 78.983 63.6742 78.5739 65.2045C78.1799 66.7348 77.5284 68 76.6193 69C75.7102 70 74.4981 70.7424 72.983 71.2273C71.4678 71.7121 69.5966 71.9545 67.3693 71.9545V67.5C69.1269 67.5 70.5057 67.2197 71.5057 66.6591C72.5208 66.1136 73.233 65.2727 73.642 64.1364C74.0663 63 74.2784 61.5455 74.2784 59.7727V50.6818C74.2784 49.5 74.4299 48.4242 74.733 47.4545C75.0511 46.4848 75.6269 45.6515 76.4602 44.9545C77.2936 44.2576 78.4754 43.7197 80.0057 43.3409C81.5511 42.9621 83.5511 42.7727 86.0057 42.7727ZM67.3693 13.7727C69.5966 13.7727 71.4678 14.0151 72.983 14.5C74.4981 14.9848 75.7102 15.7273 76.6193 16.7273C77.5284 17.7273 78.1799 18.9924 78.5739 20.5227C78.983 22.053 79.1875 23.8636 79.1875 25.9545V33.2273C79.1875 35.7121 79.6875 37.4848 80.6875 38.5455C81.7027 39.6061 83.4754 40.1364 86.0057 40.1364V42.9545C83.5511 42.9545 81.5511 42.7652 80.0057 42.3864C78.4754 42.0076 77.2936 41.4697 76.4602 40.7727C75.6269 40.0758 75.0511 39.2424 74.733 38.2727C74.4299 37.303 74.2784 36.2273 74.2784 35.0455V25.9545C74.2784 24.1818 74.0663 22.7273 73.642 21.5909C73.233 20.4394 72.5208 19.5909 71.5057 19.0455C70.5057 18.5 69.1269 18.2273 67.3693 18.2273V13.7727ZM86.0057 40.1364V45.5909H80.642V40.1364H86.0057Z" fill="white"/>
<rect x="31.6296" y="23.7963" width="1.88889" height="2.25926" fill="white"/>
<rect x="49.2593" y="17.0185" width="1.88889" height="2.25926" fill="white"/>
<rect x="55.5555" y="24.5494" width="1.88889" height="2.25926" fill="white"/>
<rect x="61.2222" y="29.0679" width="1.88889" height="2.25926" fill="white"/>
<rect x="31.6296" y="49.4012" width="2.51852" height="3.01235" fill="white"/>
<rect x="37.9259" y="50.1543" width="2.51852" height="3.01235" fill="white"/>
<rect x="46.1111" y="70.4877" width="2.51852" height="3.01235" fill="white"/>
<rect x="39.8148" y="12.5" width="3.14815" height="3.76543" fill="white"/>
<rect x="52.4074" y="18.5247" width="3.14815" height="3.76543" fill="white"/>
<rect x="41.0741" y="32.0803" width="3.14815" height="3.76543" fill="white"/>
<rect x="37.2963" y="68.2284" width="4.40741" height="5.27161" fill="white"/>
<rect x="48.6296" y="25.3025" width="5.03704" height="6.02469" fill="white"/>
<rect x="58.0741" y="35.8457" width="5.03704" height="6.02469" fill="white"/>
<rect x="59.963" y="46.3889" width="5.03704" height="6.02469" fill="white"/>
<rect x="48.6296" y="50.1543" width="5.03704" height="6.02469" fill="white"/>
<rect x="48" y="61.4506" width="5.03704" height="6.02469" fill="white"/>
<rect x="31" y="31.3271" width="5.03704" height="6.02469" fill="#E36230"/>
<rect x="37.9259" y="41.1173" width="4.40741" height="5.27161" fill="#E36230"/>
<rect x="36.6667" y="20.0309" width="6.2963" height="7.53086" fill="#E36230"/>
<rect x="48.6296" y="35.8457" width="6.2963" height="7.53086" fill="#E36230"/>
<rect x="34.7778" y="56.9321" width="6.92593" height="8.28395" fill="#E36230"/>
<rect x="56.8148" y="59.1913" width="6.2963" height="6.90329" fill="#E36230"/>
<path d="M6.372 82.06V92.5H3.852V82.06H0.45V79.9H9.774V82.06H6.372ZM14.0465 83.5V92.5H11.5805V83.5H14.0465ZM11.4905 81.826V79.36H14.1365V81.826H11.4905ZM16.3884 94.984V93.724L18.4764 92.5L16.7484 91.492V89.872L18.0264 89.134L16.7484 88.396V84.706L18.8364 83.5H24.9384V84.652L23.3004 85.606L24.3984 86.254V88.198L22.3104 89.404H19.2144V90.574H22.8504L24.9384 91.78V94.984L22.8504 96.19H18.4764L16.3884 94.984ZM22.4724 92.5H18.8544V94.12H22.4724V92.5ZM19.2144 85.516V87.388H21.9324V85.516H19.2144ZM34.7477 90.394V92.5H29.3657L27.2777 91.294V84.616L29.3657 83.41H32.6597L34.7477 84.616V88.918H29.7437V90.394H34.7477ZM29.7437 85.516V87.064H32.2817V85.516H29.7437ZM43.0175 85.606H39.9215V92.5H37.4555V83.5H39.4895L39.9215 84.238L41.1995 83.5H43.0175V85.606ZM45.0007 86.11V81.016L47.0887 79.81H51.6427L53.7307 81.016V83.41H51.2107V81.97H47.5207V84.976H51.6427L53.7307 86.182V91.384L51.6427 92.59H46.9087L44.8207 91.384V88.99H47.3407V90.43H51.2107V87.316H47.0887L45.0007 86.11ZM71.2814 91.294L69.1934 92.5H61.4714V79.9H69.1934L71.2814 81.106V91.294ZM63.9914 82.06V90.34H68.7614V82.06H63.9914ZM74.3386 86.11V81.016L76.4266 79.81H80.9806L83.0686 81.016V83.41H80.5486V81.97H76.8586V84.976H80.9806L83.0686 86.182V91.384L80.9806 92.59H76.2466L74.1586 91.384V88.99H76.6786V90.43H80.5486V87.316H76.4266L74.3386 86.11ZM92.8835 88.81H95.4035V91.384L93.3155 92.59H88.2215L86.1335 91.384V81.016L88.2215 79.81H93.3155L95.4035 81.016V83.59H92.8835V81.97H88.6535V90.43H92.8835V88.81Z" fill="#E36230"/>
</svg>
