<svg width="100" height="14" viewBox="0 0 100 14" fill="none" xmlns="http://www.w3.org/2000/svg">
<path d="M5.96042 2.82918H12.0375C14.225 2.82918 16.7479 4.69585 16.7479 6.99585C16.7479 9.29585 14.2271 11.1625 12.0375 11.1625H5.96042C3.77292 11.1625 2.08334 9.29793 2.08334 6.99585C2.08334 4.69377 3.77292 2.82918 5.96042 2.82918ZM89.6271 0.74585C86.7083 0.74585 84.375 3.54377 84.375 6.99585C84.375 10.4479 86.7292 13.2458 89.6271 13.2458H98L100 11.1625H89.5833C87.7125 11.0646 86.8979 9.83335 86.4583 8.03752H98L100 5.95418H86.4583C86.9021 4.16043 87.6917 2.8396 89.5833 2.82918H98L100 0.74585H89.6271ZM70.8333 0.74585V12.05C70.8333 12.3584 71.0312 12.6584 71.2521 12.8875C71.4729 13.1167 71.7708 13.2458 72.0958 13.2458L80.2917 13.25L82.375 11.1667L72.9167 11.1625V0.750018L70.8333 0.74585ZM58.0042 0.74585C54.6896 0.74585 52.0646 3.55002 52.0646 7.0021C52.0646 10.4542 54.6896 13.2458 58.0042 13.2458L65.6062 13.2209L68 11.1625H57.9604C55.7729 11.1625 54.1271 9.30002 54.1271 6.99794C54.1271 4.69585 55.7729 2.82918 57.9604 2.82918L65.6458 2.86252L68 0.74585H58.0042ZM43.75 0.74585C43.2125 0.74585 42.6625 1.19377 42.3542 1.7521L36.4583 13.2458H38.5417L43.75 2.82918L47.2729 9.07918H41.75L43.7104 11.1209L48.2542 11.1084L49.625 13.2438L51.8771 13.225L45.05 1.7521C44.5708 0.983353 44.2708 0.74585 43.75 0.74585ZM20.8333 0.74585V13.2458H22.9167V2.82918H29.1667C30.2396 2.82918 31.25 3.79585 31.25 4.91252C31.25 6.02918 30.2396 6.99585 29.1667 6.99585H23.9583L31.2104 13.2458H34.375L29.1667 9.07918L29.8688 9.06043C31.4104 9.06252 33.3333 7.24793 33.3333 4.91252C33.3333 2.5771 31.9021 0.775016 30.0979 0.74585H20.8333ZM6.00417 0.74585C2.68959 0.74585 1.90735e-06 3.54585 1.90735e-06 6.99585C1.90735e-06 10.4458 2.68959 13.2458 6.00417 13.2458H12C15.3146 13.2458 18.75 10.4479 18.75 6.99585C18.75 3.54377 15.3146 0.74585 12 0.74585H6.00417Z" fill="#EF0F14"/>
</svg>
