<svg width="500" height="250" viewBox="0 0 500 250" fill="none" xmlns="http://www.w3.org/2000/svg">
<path d="M31.9801 249.402C31.9801 249.402 -26.2007 189.981 22.1409 125.649C65.0326 68.57 115.04 72.4719 151.73 95.6349C167.356 105.5 212.41 96.8509 250.756 38.7703C303.05 -40.4355 484.318 7.60306 451.267 129.464C435.273 188.435 499.944 190.579 466.992 249.527L31.9801 249.402Z" fill="#FCECDB"/>
<path d="M452.523 248.739H434.09C433.102 247.942 434.773 246.131 436.519 246.01C437.278 245.955 438.237 246.106 439.333 246.326C439.587 243.121 441.035 228.714 446.495 229.293C452.633 229.941 446.495 235.638 444.76 239.01C443.474 241.509 442.118 245.091 441.498 246.782C441.997 246.884 442.513 246.985 443.039 247.077C443.853 244.701 446.881 236.708 450.731 237.173C455.251 237.718 453.434 240.923 450.23 242.826C447.879 244.225 444.993 246.213 443.621 247.174C444.784 247.354 445.996 247.476 447.227 247.449C450.385 247.377 451.926 248.262 452.523 248.739Z" fill="#82B378"/>
<path d="M50.696 248.114C49.9639 247.02 47.7607 244.181 44.826 244.557C41.6287 244.966 48.3574 246.971 50.4174 248.122C49.9599 248.128 49.5665 248.093 49.2778 247.996C47.9005 247.529 45.5418 248.424 44.7878 248.739H57.8992C57.8087 248.44 57.5723 247.953 56.9617 247.598C56.7464 247.473 56.3135 247.455 55.7548 247.496C56.5346 246.622 57.0759 243.829 54.9056 244.547C53.3201 245.072 53.3244 246.779 53.4801 247.788C53.1427 247.839 52.8006 247.889 52.4628 247.936C51.81 244.771 49.5011 235.496 44.8212 235.249C40.0772 234.998 48.8444 244.868 51.7635 248.024C51.3895 248.067 51.0293 248.099 50.696 248.114Z" fill="#82B378"/>
<path d="M384.466 227.152L383.041 232.857L381.149 240.422H375.237L374.885 233.175L374.613 227.585L384.466 227.152Z" fill="#FFB27D"/>
<path d="M403.199 102.981C403.199 102.981 407.876 98.2204 410.917 101.954C413.959 105.687 417.329 108.207 421.996 111.078C426.663 113.949 417.872 136.455 412.026 135.992C406.18 135.53 382.327 117.787 403.199 102.981Z" fill="#BC3F3F"/>
<path d="M379.908 100.718C381.075 99.8873 391.826 96.3767 402.308 99.8294C412.789 103.282 394.189 112.901 394.189 112.901L388.161 113.148L379.908 100.718Z" fill="#4A75CB"/>
<path d="M372.899 248.733C372.899 248.733 372.899 245.98 373.312 245.065C373.724 244.149 375.237 240.422 375.237 240.422H381.148C381.148 240.422 382.248 243.822 382.317 244.934C382.386 246.045 382.317 248.733 382.317 248.733H372.899Z" fill="#233862"/>
<path d="M410.434 248.733C410.434 248.733 410.434 245.98 410.022 245.065C409.609 244.149 408.097 240.422 408.097 240.422H402.185C402.185 240.422 401.086 243.822 401.017 244.934C400.948 246.045 401.017 248.733 401.017 248.733H410.434Z" fill="#233862"/>
<path d="M386.751 94.2152C386.751 94.2152 386.543 100.345 385.718 103.092L379.189 116.477L403.764 110.922L397.903 103.219C397.903 103.219 396.133 95.0001 397.061 91.9593C397.99 88.9189 386.751 94.2152 386.751 94.2152Z" fill="#FFB27D"/>
<path d="M386.715 95.0616C386.715 95.0596 388.658 99.5115 392.319 99.4134C395.979 99.3152 396.812 95.3779 396.812 95.3779L386.715 95.0616Z" fill="#ED985F"/>
<path d="M384.53 91.4587C384.53 91.4587 383.348 85.8454 382.523 84.1454C381.698 82.4452 381.011 74.8604 390.153 74.4679C390.153 74.4679 393.659 74.8604 395.584 73.7489C395.584 73.7489 395.584 74.8604 395.103 75.2526C395.103 75.2526 398.265 74.5334 400.739 77.1489C403.214 79.7645 399.09 88.9191 399.296 91.0765L384.53 91.4587Z" fill="#2C3A64"/>
<path d="M391.899 97.6941C389.247 97.6495 384.365 94.29 384.365 90.1299V83.6379C384.365 82.1189 385.479 80.8759 386.84 80.8759H396.958C398.319 80.8759 399.433 82.1189 399.433 83.6379V89.7623C399.433 94.1248 394.941 97.7451 391.899 97.6941Z" fill="#FFB27D"/>
<path d="M384.365 87.1043C384.365 87.1043 384.379 83.2036 387.627 82.6038C390.875 82.0041 398.145 84.505 399.176 81.6606C400.207 78.8162 385.125 78.8654 384.366 80.6798C383.606 82.4942 384.365 87.1043 384.365 87.1043Z" fill="#2C3A64"/>
<path d="M395.69 154.704C397.317 149.887 397.284 174.643 390.753 202.49C389.757 206.74 387.525 216.988 385.922 226.906H372.542C372.357 218.897 371.455 207.717 370.886 199.342C369.104 173.093 373.64 153.394 373.64 153.394L395.69 154.704Z" fill="#2B478B"/>
<path d="M412.861 199.341C412.713 207.367 411 218.029 410.844 225.844H397.269C396.357 220.171 394.908 214.33 393.868 209.617C393.127 206.271 392.592 203.494 392.6 201.75C392.616 198.341 390.348 188.511 388.999 179.844C388.997 179.831 388.995 179.819 388.993 179.808C388.941 179.475 388.89 179.143 388.841 178.813C387.033 166.629 387.671 154.704 387.671 154.704L410.576 153.342C410.576 153.342 413.253 177.936 412.861 199.341Z" fill="#2B478B"/>
<path d="M371.826 163.49C371.826 163.49 376.979 169.429 390.98 168.572C404.981 167.715 411.661 165.397 411.661 165.397L371.826 163.49Z" fill="#233862"/>
<path d="M411.661 165.397C407.087 165.989 375.974 167.526 371.826 163.49C367.679 159.452 378.597 104.382 378.597 104.382C378.597 104.382 379.834 104.042 381.921 103.668C382.984 103.477 384.268 103.279 385.72 103.113C385.738 103.542 386.098 110.035 391.764 112.717C391.764 112.717 398.57 110.123 397.903 103.218C397.895 103.137 397.886 103.059 397.874 102.981C398.782 103.074 399.702 103.194 400.626 103.346C402.492 103.651 404.382 104.082 406.257 104.672C406.257 104.672 416.235 164.807 411.661 165.397Z" fill="#739AF0"/>
<path d="M372.089 136.965C371.905 137.194 373.145 138.889 374.895 141.068C378.495 145.544 384.253 152.058 384.253 152.058C384.176 154.266 383.852 155.69 383.852 155.69C375.942 152.135 370.593 148.81 367.048 146.139C362.064 142.383 360.634 139.918 360.634 139.918C368.627 107.759 378.881 104.41 378.881 104.41L382.226 123.789C382.226 123.789 372.649 136.268 372.089 136.965Z" fill="#739AF0"/>
<path d="M400.626 103.346L398.564 109.309L395.817 113.148L391.873 115.182L388.161 113.148L381.921 103.668C382.984 103.477 384.268 103.279 385.72 103.113C385.738 103.542 386.098 110.034 391.764 112.717C391.764 112.717 398.57 110.123 397.903 103.218C397.895 103.137 397.886 103.059 397.874 102.981C398.782 103.074 399.702 103.194 400.626 103.346Z" fill="#EE9849"/>
<path d="M384.254 152.059C384.252 152.122 384.25 152.183 384.246 152.244C384.229 152.65 384.204 153.032 384.172 153.377C383.974 153.638 383.755 153.884 383.515 154.114C383.152 154.463 382.759 154.757 382.358 155.005C382.158 154.915 381.957 154.82 381.761 154.728C374.986 151.537 370.273 148.568 367.049 146.14C369.094 145.54 371.961 144.171 374.895 141.067C378.494 145.544 384.254 152.059 384.254 152.059Z" fill="#FFB27D"/>
<path d="M423.538 138.736C423.538 138.736 422.158 141.226 417.251 145.072C413.76 147.807 408.479 151.229 400.642 154.928C400.642 154.928 400.289 153.509 400.168 151.303C400.168 151.303 405.794 144.686 409.303 140.145C411.009 137.935 412.215 136.218 412.026 135.992C411.581 135.459 405.577 127.948 402.898 124.597C402.121 123.624 401.626 123.003 401.626 123.003L405.016 103.95C405.016 103.95 414.9 106.728 423.538 138.736Z" fill="#739AF0"/>
<path d="M417.25 145.072C414.064 147.566 409.389 150.633 402.644 153.962C402.477 154.043 402.307 154.127 402.136 154.21C401.275 153.22 400.752 152.042 400.433 150.991C400.545 150.858 400.691 150.683 400.87 150.473C402.486 148.555 406.546 143.709 409.302 140.145C412.297 143.195 415.192 144.51 417.25 145.072Z" fill="#FFB27D"/>
<path d="M397.874 102.981C393.335 102.519 389.077 102.73 385.72 103.113C385.718 103.098 385.718 103.091 385.718 103.091C385.718 103.091 396.968 96.4724 397.874 102.981Z" fill="#FFB27D"/>
<path d="M386.592 121.699H386.361L386.191 111.384H386.774L386.592 121.699Z" fill="#BBD4FF"/>
<path d="M386.337 121.431C386.127 121.733 385.655 122.73 385.968 122.835C386.282 122.941 386.833 122.947 386.98 122.806C387.128 122.666 386.735 120.861 386.337 121.431Z" fill="#EE9849"/>
<path d="M397.241 121.699H397.01L396.839 111.384H397.423L397.241 121.699Z" fill="#BBD4FF"/>
<path d="M396.986 121.431C396.776 121.733 396.304 122.73 396.617 122.835C396.931 122.941 397.481 122.947 397.629 122.806C397.777 122.666 397.383 120.861 396.986 121.431Z" fill="#EE9849"/>
<path d="M388.161 113.148L378.598 104.382C378.598 104.382 376.445 102.928 379.848 100.754C383.251 98.5811 388.161 113.148 388.161 113.148Z" fill="#4A75CB"/>
<path d="M395.816 113.148L405.379 104.382C405.379 104.382 407.532 102.928 404.129 100.754C400.726 98.5811 395.816 113.148 395.816 113.148Z" fill="#4A75CB"/>
<path d="M407.818 155.823C405.955 155.973 404.402 155.529 403.202 154.509C403 154.337 402.815 154.154 402.644 153.962C401.699 152.911 401.168 151.589 400.87 150.473C400.528 149.199 400.491 148.196 400.491 148.176L400.484 147.919H385.038L385.047 148.193C385.108 149.772 384.839 151.128 384.246 152.243C383.953 152.802 383.578 153.3 383.122 153.736C382.702 154.139 382.238 154.465 381.761 154.728C379.694 155.867 377.394 155.823 377.364 155.823L377.078 155.813V162.021H408.12V155.798L407.818 155.823Z" fill="#678FE5"/>
<path d="M412.026 135.992C412.026 135.992 403.416 125.245 410.232 122.117C412.937 120.874 416.746 135.622 414.704 137.009C412.662 138.397 409.302 140.144 409.302 140.144L412.026 135.992Z" fill="#678FE5"/>
<path d="M373.08 134.22C373.08 134.22 376.071 120.727 373.446 122.116C370.821 123.506 366.932 135.622 368.974 137.009C371.016 138.397 374.376 140.144 374.376 140.144L373.08 134.22Z" fill="#678FE5"/>
<path d="M410.819 135.961C406.887 131.318 405.418 123.779 405.619 115.999C405.77 110.157 406.611 104.885 406.666 104.7L409.891 107.09C409.878 107.134 408.04 110.33 407.898 116.015C407.768 121.213 407.509 125.171 410.598 134.22L410.819 135.961Z" fill="#BC3F3F"/>
<path d="M380.966 229.777L374.038 229.773C373.425 229.839 372.465 228.985 372.465 227.764C372.465 227.764 372.451 224.837 372.248 224.316C371.357 222.035 372.682 221.912 373.965 221.912H386.605C387.888 221.912 385.922 225.685 385.922 226.906L386.378 228.506C386.378 229.727 382.249 229.777 380.966 229.777Z" fill="#233862"/>
<path d="M383.041 232.857L381.149 240.422H375.237L374.885 233.175C375.766 233.482 378.732 234.268 383.041 232.857Z" fill="#233862"/>
<path d="M398.879 227.152L400.305 232.771L402.197 240.222H408.108L408.46 233.084L408.733 227.579L398.879 227.152Z" fill="#FFB27D"/>
<path d="M402.379 229.777L409.307 229.773C409.92 229.839 410.88 228.985 410.88 227.764C410.88 227.764 410.894 224.837 411.098 224.316C411.989 222.035 410.663 221.912 409.38 221.912H396.741C395.457 221.912 397.423 225.685 397.423 226.906L396.968 228.506C396.968 229.727 401.096 229.777 402.379 229.777Z" fill="#233862"/>
<path d="M400.305 232.857L402.197 240.422H408.108L408.46 233.175C407.579 233.482 404.614 234.268 400.305 232.857Z" fill="#233862"/>
<path d="M106.356 79.899C105.89 79.4174 104.85 78.8718 103.481 78.4268C105.886 77.3974 107.933 76.184 106.518 75.4425C105.906 75.1217 105.175 75.1668 104.405 75.4332C105.59 74.2933 106.16 73.3119 105.005 73.0545C103.25 72.6639 101.422 74.8155 100.147 76.7991C100.974 75.0979 101.401 73.4119 99.8582 73.3867C98.0804 73.3577 97.7331 75.6023 97.7639 77.5425C97.6166 77.5432 97.4692 77.5457 97.3215 77.5506C96.8203 75.4045 95.8488 72.735 94.192 73.4478C93.358 73.8068 93.3877 74.5766 93.8247 75.4668C93.0413 74.895 92.2661 74.6973 91.6502 75.3027C90.7121 76.2259 91.8657 77.321 93.3903 78.2368C92.3105 78.6098 91.2897 79.1498 90.3883 79.8986C85.2115 84.1986 90.8559 93.9365 90.8559 93.9365L105.635 93.5763C110.266 86.5642 108.033 81.6329 106.356 79.899Z" fill="#2C3A64"/>
<path d="M91.2821 146.926L82.4555 147.984C76.6516 148.68 71.4057 145.498 70.7979 140.912L67.4403 115.573C66.8324 110.987 69.373 107.373 75.2084 107.145C78.6664 107.01 84.437 106.285 90.6444 104.321C96.1484 102.578 96.7644 107.398 97.372 111.984L100.73 137.323C101.338 141.909 97.0862 146.23 91.2821 146.926Z" fill="#2B478B"/>
<path d="M79.6099 249.502C79.6099 249.502 79.6099 246.802 80.0145 245.904C80.4191 245.006 81.9023 241.35 81.9023 241.35H87.7008C87.7008 241.35 88.7793 244.685 88.8469 245.776C88.9145 246.866 88.8469 249.502 88.8469 249.502H79.6099V249.502Z" fill="#233862"/>
<path d="M116.426 249.502C116.426 249.502 116.426 246.802 116.021 245.904C115.617 245.006 114.133 241.35 114.133 241.35H108.335C108.335 241.35 107.256 244.685 107.189 245.776C107.121 246.866 107.189 249.502 107.189 249.502H116.426V249.502Z" fill="#233862"/>
<path d="M93.1958 97.9438C93.1958 97.9438 92.9915 103.957 92.1824 106.65L85.7794 110.899L109.883 114.33L104.135 106.775C104.135 106.775 102.399 98.7135 103.309 95.7314C104.22 92.7489 93.1958 97.9438 93.1958 97.9438Z" fill="#B56F40"/>
<path d="M93.1605 98.7742C93.1607 98.7724 95.0668 103.139 98.657 103.043C102.247 102.946 103.064 99.0845 103.064 99.0845L93.1605 98.7742Z" fill="#99592E"/>
<path d="M98.2456 101.356C95.644 101.312 90.8561 98.0175 90.8561 93.9369V87.5692C90.8561 86.0793 91.9484 84.8603 93.2832 84.8603H103.208C104.543 84.8603 105.635 86.0793 105.635 87.5692V93.5765C105.635 97.8554 101.229 101.406 98.2456 101.356Z" fill="#B56F40"/>
<path d="M80.3364 155.989C80.3364 155.989 81.3513 185.457 79.8341 202.271C78.3173 219.084 79.8453 242.484 79.8453 242.484C79.8453 242.484 84.6967 245.028 89.9559 242.484C89.9559 242.484 95.7236 210.001 95.6868 202.271C95.6481 194.038 101.965 157.273 101.965 157.273L80.3364 155.989Z" fill="#EE9849"/>
<path d="M116.216 242.483C116.216 242.483 111.366 245.028 106.107 242.483C106.107 242.483 100.34 210.001 100.376 202.27C100.392 198.794 99.2759 190.226 97.9792 181.49C96.2055 169.54 94.0977 157.274 94.0977 157.274L116.564 155.939C116.564 155.939 114.711 185.458 116.228 202.27C117.745 219.085 116.216 242.483 116.216 242.483Z" fill="#EE9849"/>
<path d="M112.329 108.201L112.329 108.214C109.413 107.515 106.67 107.056 104.135 106.775C101.898 109.602 100.291 110.258 98.2464 111.027C94.9555 110.594 92.1824 106.739 92.1824 106.65C87.4048 107.116 84.7005 108.072 84.7005 108.072C82.8821 108.797 80.4952 122.31 80.123 129.816C80.0765 130.759 80.0605 131.605 80.0825 132.321C80.2767 138.759 80.5499 145.016 79.678 151.946C78.531 161.053 80.4729 160.891 80.4729 160.891C80.4729 160.891 83.0862 161.378 86.7313 161.838C90.0282 162.257 94.1687 162.655 97.9794 162.655C106.718 162.655 116.295 160.891 116.295 160.891C119.052 160.924 115.522 144.573 115.007 134.735C114.887 132.451 114.776 130.365 114.672 128.459C117.983 131.173 127.727 136.118 127.948 136.749C127.948 136.749 125.822 140.441 125.176 142.409C122.696 149.964 118.43 154.96 118.43 154.96C119.01 157.055 118.848 157.984 118.848 157.984C125.596 152.941 129.946 148.65 132.723 145.36C136.627 140.733 137.428 138.079 137.428 138.079C122.404 108.988 112.329 108.201 112.329 108.201Z" fill="#74ACBE"/>
<path d="M86.7311 161.838C83.0862 161.378 80.4727 160.891 80.4727 160.891C80.4727 160.891 78.531 161.053 79.6778 151.947C80.5497 145.016 80.2765 138.759 80.0823 132.321C80.0602 131.606 80.0763 130.759 80.1228 129.816C80.6811 130.667 86.9029 140.225 88.5777 147.329C89.7975 152.51 87.9588 158.613 86.7311 161.838Z" fill="#578E9B"/>
<path d="M100.376 202.27C100.393 198.794 99.276 190.226 97.9794 181.49C99.3246 176.272 102.601 171.251 102.601 171.251C106.748 182.314 100.376 202.27 100.376 202.27Z" fill="#E58638"/>
<path d="M118.43 154.96C118.43 154.96 114.789 151.753 113.305 153.549C111.822 155.345 111.552 158.167 112.699 157.974C113.845 157.782 116.205 156.756 116.542 157.269C116.879 157.782 118.389 158.763 118.848 157.984C119.306 157.205 118.43 154.96 118.43 154.96Z" fill="#B56F40"/>
<path d="M118.43 154.96C119.01 157.055 118.847 157.984 118.847 157.984C125.595 152.941 129.945 148.65 132.723 145.36C130.629 145.212 128.693 144.768 125.176 142.409C122.272 150.836 118.43 154.96 118.43 154.96Z" fill="#B56F40"/>
<path d="M127.107 136.098C126.567 135.671 117.913 131.138 114.636 128.431C114.636 128.431 117.907 126.099 119.93 129.498C121.952 132.898 127.107 136.098 127.107 136.098Z" fill="#578E9B"/>
<path d="M137.428 138.08C137.428 138.08 136.627 140.733 132.723 145.36C128.205 145.301 137.428 138.08 137.428 138.08Z" fill="#578E9B"/>
<path d="M90.8559 90.1514C90.8559 90.1514 92.6614 84.9084 98.5778 85.7262C104.494 86.5439 105.006 87.7464 105.635 89.1413C106.264 90.5363 107.478 84.0425 107.478 84.0425L100.499 82.0704C100.499 82.0704 92.0545 82.9844 91.4476 84.3311C90.8409 85.678 90.8409 85.678 90.8409 85.678L90.8559 90.1514Z" fill="#2C3A64"/>
<path d="M80.1799 146.01L80.2813 141.541C86.9766 136.705 89.7002 130.974 89.9583 121.061C90.1538 113.544 87.4991 107.414 87.4804 107.353C87.4804 107.353 88.665 107.083 89.0682 107.016C89.5034 106.945 90.8352 106.8 90.8352 106.8C90.9162 107.063 92.6802 113.173 92.4872 121.053C92.2284 131.615 87.4308 140.773 80.1799 146.01Z" fill="#2B478B"/>
<path d="M98.7425 144.717C96.4812 145.041 84.8935 147.599 76.6349 148.59C71.9796 149.149 68.3821 149.212 68.1042 148.096C67.336 145.002 69.9495 125.289 74.1032 117.356C78.2566 109.42 85.955 107.707 85.955 107.707L88.145 120.269L77.0125 141.36L79.7234 141.406L98.3269 141.721L98.7425 144.717Z" fill="#74ACBE"/>
<path d="M104.577 145.839H100.389C99.8814 145.839 99.4667 145.445 99.4667 144.962V137.756C99.4667 137.274 99.8816 136.879 100.389 136.879H104.577C105.084 136.879 105.499 137.274 105.499 137.756V144.962C105.499 145.445 105.084 145.839 104.577 145.839Z" fill="#233862"/>
<path d="M104.577 146.561H100.389C99.8814 146.561 99.4667 146.166 99.4667 145.684V138.478C99.4667 137.995 99.8816 137.601 100.389 137.601H104.577C105.084 137.601 105.499 137.996 105.499 138.478V145.684C105.499 146.166 105.084 146.561 104.577 146.561Z" fill="#2B478B"/>
<path d="M96.1511 142.413C96.1511 142.413 102.271 138.401 104.278 139.794C106.285 141.187 106.445 144.508 98.1237 144.782L96.1511 142.413Z" fill="#B56F40"/>
<path d="M98.7425 144.717C96.4812 145.041 84.8935 147.599 76.6349 148.59C77.3583 145.239 78.4958 142.958 79.723 141.406L98.3265 141.721L98.7425 144.717Z" fill="#B56F40"/>
<path d="M104.731 90.7244C104.417 90.3603 103.901 90.1512 103.313 90.1512H100.333C99.7669 90.1512 99.3711 90.3063 99.1573 90.6118C99.0577 90.7539 99.0081 90.9159 98.9896 91.0818C98.4897 90.9633 98.0031 91.0235 97.6649 91.104C97.6485 90.9301 97.5984 90.7601 97.495 90.6118C97.2812 90.3063 96.8851 90.1512 96.3188 90.1512H93.3394C92.7519 90.1512 92.2349 90.3603 91.9212 90.7244C91.6368 91.055 91.5406 91.486 91.6437 91.9713C91.9828 93.5729 93.9218 93.7777 94.8905 93.7777C95.1895 93.7777 95.396 93.7582 95.4346 93.7541C96.3412 93.7521 96.9796 93.2601 97.4433 92.2061C97.5225 92.0262 97.6487 91.6882 97.669 91.3358C97.9909 91.2541 98.4858 91.1804 98.9821 91.3102C98.9976 91.6718 99.1279 92.0221 99.209 92.2063C99.6728 93.2603 100.311 93.7523 101.218 93.7543C101.256 93.7582 101.463 93.7779 101.762 93.7779C102.73 93.7779 104.669 93.5731 105.009 91.9715C105.111 91.4862 105.015 91.0551 104.731 90.7244ZM97.2625 92.1342C96.8323 93.1123 96.2497 93.5678 95.4292 93.5678L95.4175 93.5685C95.4093 93.5694 94.6067 93.6582 93.7646 93.4949C92.6586 93.2809 92.0097 92.7559 91.8355 91.9344C91.7447 91.5059 91.8267 91.1287 92.0728 90.8423C92.349 90.5216 92.8106 90.3377 93.3392 90.3377H96.3186C96.8155 90.3377 97.1563 90.4647 97.3314 90.7152C97.4218 90.8443 97.4618 90.9979 97.4719 91.1562C97.32 91.202 97.2233 91.2427 97.2102 91.2484C97.1514 91.274 97.1255 91.3402 97.1524 91.3962C97.1722 91.437 97.2147 91.4612 97.2592 91.4612C97.2754 91.4612 97.2918 91.458 97.3079 91.4511C97.3103 91.45 97.3695 91.4251 97.4674 91.3933C97.4352 91.7107 97.3176 92.0093 97.2625 92.1342ZM104.817 91.9345C104.642 92.7559 103.994 93.2809 102.888 93.4949C102.045 93.658 101.243 93.5694 101.235 93.5685L101.223 93.5678C100.402 93.5678 99.8199 93.1122 99.3895 92.1342C99.3335 92.0065 99.2125 91.6985 99.1836 91.3743C99.2405 91.396 99.2969 91.4205 99.3529 91.4486C99.4105 91.4775 99.4814 91.4569 99.5115 91.4022C99.5419 91.3479 99.5201 91.2805 99.4631 91.2514C99.3699 91.2045 99.2758 91.1685 99.1815 91.1368C99.1935 90.9855 99.2336 90.8388 99.3204 90.7152C99.4958 90.4647 99.8364 90.3377 100.333 90.3377H103.313C103.842 90.3377 104.303 90.5216 104.579 90.8423C104.825 91.1287 104.907 91.5059 104.817 91.9345Z" fill="#2C3A64"/>
<path d="M95.8654 97.2399C95.8654 97.2399 99.1388 96.9008 100.662 97.2399C100.662 97.2399 99.8517 98.5039 98.5229 98.5039C97.1942 98.5039 96.1894 98.0414 95.8654 97.2399Z" fill="#FFF0E6"/>
<path d="M246.174 87.4496C244.578 86.95 242.844 87.1942 241.658 87.4919C241.903 87.1294 242.487 86.9022 242.487 86.9022C241.721 86.9397 240.208 87.9605 240.208 87.9605C229.051 86.1505 230.497 100.963 231.428 104.291C232.358 107.618 226.969 117.263 223.25 121.968C212.817 135.171 229.5 148.92 229.5 148.92C243.025 159.725 236.879 138.772 236.879 138.772C236.041 136.1 246.202 119.202 252.179 113.578C253.358 110.908 253.076 106.645 253.051 106.31C253.459 109.655 253.258 111.613 252.949 112.754C257.701 106.528 250.405 88.7731 246.174 87.4496Z" fill="#163560"/>
<path d="M273.94 136.128C273.94 137.559 273.184 139.392 272.102 141.28C269.412 145.986 264.708 151.031 264.708 151.031L261.982 147.339C261.982 147.339 263.639 143.427 264.739 140.202C265.4 138.262 265.858 136.572 265.634 136.127C265.038 134.942 253.234 121.659 253.234 121.659L250.026 111.382C250.026 111.382 257.879 111.777 261.223 116.434C264.567 121.092 273.94 132.27 273.94 136.128Z" fill="#BC3F3F"/>
<path d="M272.102 141.28C269.412 145.986 264.708 151.031 264.708 151.031L261.982 147.339C261.982 147.339 263.639 143.427 264.739 140.202C266.061 140.946 268.35 141.655 272.102 141.28Z" fill="#FFB27D"/>
<path d="M239.475 228.754L242.299 240.072L246.531 240.049L246.686 228.754H239.475Z" fill="#FFB27D"/>
<path d="M275.067 229.237L283.104 240.072L286.237 236.246L281.4 227.747L275.067 229.237Z" fill="#FFB27D"/>
<path d="M250.589 114.701C250.624 114.716 247.196 116.409 244.617 115.738C242.191 115.109 240.606 112.117 240.639 112.11C241.667 111.916 241.963 110.573 241.941 104.803L242.406 104.89L250.214 106.361C250.214 106.361 250.037 108.698 250.031 110.9C250.026 112.749 250.144 114.503 250.589 114.701Z" fill="#FFB27D"/>
<path d="M238.063 91.4758C238.063 91.4758 241.029 86.9274 246.539 89.647C246.539 89.647 243.684 89.7219 238.063 91.4758Z" fill="#5FABB7"/>
<path d="M250.214 106.361C250.214 106.361 250.037 108.698 250.031 110.901C245.662 110.783 243.352 106.992 242.406 104.89L250.214 106.361Z" fill="#EF9E67"/>
<path d="M240.798 105.15C240.798 105.15 237.839 102.207 236.688 99.4252C235.868 97.4392 235.353 89.5934 243.651 89.1465C243.651 89.1465 246.04 88.917 248.541 89.9095C250.531 90.6987 253.572 92.6429 252.159 99.8467L251.901 102.238L240.798 105.15Z" fill="#163560"/>
<path d="M285.484 233.77C285.484 233.77 283.409 234.111 281.705 234.235C281.326 234.262 280.967 234.278 280.652 234.278C279.832 234.278 278.354 233.984 277.361 233.764L277.287 233.748C276.851 233.65 276.519 233.569 276.395 233.539L276.343 233.526C276.343 233.526 265.993 222.566 260.188 204.997C260.053 204.587 259.91 204.174 259.76 203.757C256.581 194.944 249.995 183.884 246.525 173.872C245.973 172.278 245.476 170.776 245.032 169.356C244.888 168.902 244.75 168.455 244.618 168.015C242.06 159.56 241.32 154.01 240.638 148.08L261.506 153.13C261.506 153.13 270.267 189.26 285.484 233.77Z" fill="#A53D38"/>
<path d="M251.581 107.536C251.581 107.536 241.48 109.638 240.201 103.634C238.921 97.63 236.756 93.858 243.151 92.2621C249.546 90.6662 251.291 92.7147 252.231 94.6198C253.17 96.5248 254.175 106.834 251.581 107.536Z" fill="#FFB27D"/>
<path d="M247.735 91.2299C247.735 91.2299 246.453 98.807 242.416 100.665C238.378 102.523 236.301 101.792 236.301 101.792C236.301 101.792 239.044 98.6976 238.809 94.2591C238.809 94.2591 244.932 88.278 247.735 91.2299Z" fill="#163560"/>
<path d="M247.169 91.9337C247.169 91.9337 249.574 93.1093 250.404 94.5417C251.233 95.9742 252.127 99.0783 253.069 98.7864C253.069 98.7864 254.145 93.5967 251.221 91.3385C248.122 88.9439 247.169 91.9337 247.169 91.9337Z" fill="#163560"/>
<path d="M242.157 239.439C242.157 239.439 242.498 241.681 241.619 244.079C241.619 244.079 240.926 247.081 244.034 247.137C247.141 247.192 247.904 246.913 247.552 245.073C247.2 243.232 246.531 240.049 246.531 240.049L242.157 239.439Z" fill="#FFB27D"/>
<path d="M241.619 244.079C241.619 244.079 240.929 247.232 241.281 248.738C241.281 248.738 242.333 249.089 244.59 249.089C246.731 249.089 247.989 248.738 247.989 248.738C247.989 248.738 247.911 245.313 247.339 244.002C247.339 244.002 245.137 247.147 241.619 244.079Z" fill="#C45446"/>
<path d="M293.726 245.373C293.726 245.373 287.996 239.324 286.237 236.246L281.977 238.322L291.501 246.829L293.729 246.551L293.726 245.373Z" fill="#FFB27D"/>
<path d="M297.365 248.919C297.365 248.919 291.208 248.919 290.153 248.807C289.098 248.697 288.248 247.246 287.104 245.07C286.637 244.18 285.586 243.69 284.51 243.421L284.53 248.738H282.836L281.343 243.104C280.328 241.331 281.262 239.722 281.977 238.322C282.807 238.32 285.041 238.861 289.273 243.397C290.665 244.886 292.201 245.418 293.726 245.373C293.747 245.386 293.768 245.397 293.789 245.405C297.307 246.911 297.365 248.919 297.365 248.919Z" fill="#C45446"/>
<path d="M281.705 234.235C281.326 234.262 280.967 234.278 280.652 234.278C279.832 234.278 278.354 233.984 277.361 233.764L277.287 233.748L276.395 233.539L276.343 233.526C276.343 233.526 265.993 222.566 260.188 204.997C260.053 204.587 259.91 204.174 259.76 203.757C256.581 194.944 249.995 183.884 246.525 173.872C245.973 172.278 245.476 170.776 245.032 169.356C244.888 168.902 244.75 168.455 244.618 168.015L248.308 165.35C248.308 165.35 259.39 182.418 262.82 198.48C265.663 211.794 277.905 229.054 281.705 234.235Z" fill="#912F2F"/>
<path d="M248.695 199.977C248.757 207.787 248.342 225.745 247.273 233.181C247.273 233.181 246.259 234.034 243.743 234.044C241.168 234.055 240.016 233.15 240.016 233.15C237.333 220.224 235.425 209.529 234.035 200.311C232.895 192.748 231.882 186.263 231.103 180.681C230.413 175.735 229.906 171.496 229.663 167.841C229.631 167.345 229.602 166.86 229.578 166.386C229.548 165.76 229.524 165.151 229.512 164.561C229.501 163.967 229.497 163.389 229.502 162.828L229.592 162.82L234.776 162.34L251.157 160.82C250.883 174.506 248.659 195.438 248.695 199.977Z" fill="#A53D38"/>
<path d="M243.743 234.044C241.553 234.165 240.016 233.15 240.016 233.15C237.333 220.224 235.425 209.529 234.035 200.311C232.895 192.748 231.882 186.263 231.103 180.681C230.413 175.735 229.906 171.496 229.663 167.842C229.634 166.041 229.614 164.315 229.592 162.82C229.568 161.304 229.543 160.02 229.499 159.127L234.776 162.34L240.329 165.718C240.329 165.718 232.452 172.534 234.388 185.419C236.322 198.303 241.05 232.219 243.743 234.044Z" fill="#912F2F"/>
<path d="M264.387 164.317C258.103 165.87 228.78 168.937 228.526 161.951C228.464 160.247 228.526 158.189 228.668 155.961C229.106 149.06 230.296 140.532 230.867 135.839C231.129 133.689 230.259 124.055 230.926 118.805C231.024 118.028 231.155 117.345 231.331 116.799C232.598 112.838 238.289 111.763 241.21 111.668L250.025 111.382C250.025 111.382 259.129 121.056 260.396 124.028C261.662 127 262.076 137.173 263.061 142.099C264.045 147.026 267.443 163.562 264.387 164.317Z" fill="#BC3F3F"/>
<path d="M247.069 140.707C247.069 140.707 242.168 155.024 228.668 155.961C229.106 149.06 230.296 140.532 230.867 135.839C231.128 133.689 230.259 124.055 230.926 118.805C231.101 118.841 231.261 118.934 231.444 118.968C246.31 121.698 248.42 137.722 247.069 140.707Z" fill="#A53D38"/>
<path d="M259.037 126.259L243.381 124.673L240.843 147.34L256.499 148.926L259.037 126.259Z" fill="#2B478B"/>
<path d="M243.373 124.672L242.369 124.596L240.009 147.244L240.836 147.338L243.373 124.672Z" fill="#163560"/>
<path d="M230.171 134.707C230.171 134.707 241.217 137.918 251.774 139.353C251.774 139.353 255.258 140.786 253.622 141.179C253.203 141.279 232.062 145.664 228.927 142.819L230.171 134.707Z" fill="#FFB27D"/>
<path d="M241.21 111.668C241.21 111.668 235.403 111.699 232.923 114.39C228.395 119.302 227.499 140.196 228.927 142.819C229.542 143.947 234.254 144.039 236.242 138.575C237.273 135.741 241.776 116.82 241.21 111.668Z" fill="#BC3F3F"/>
<path d="M250.733 139.207C250.733 139.207 252.032 139.092 252.278 138.697C252.771 137.908 253.549 137.918 254.199 137.814C254.848 137.71 255.577 137.034 255.706 137.17C255.835 137.306 255.227 138.051 254.888 138.329C254.888 138.329 255.584 138.369 256.045 138.16C256.507 137.951 257.911 136.224 258.133 136.951C258.715 138.862 258.11 140.699 256.498 140.848C254.759 141.009 250.445 141.801 250.445 141.801L250.733 139.207Z" fill="#FFB27D"/>
<path d="M305.007 148.08C296.756 146.083 287.686 133.906 287.686 133.906L290.009 131.989C292.415 134.687 302.416 139.333 302.416 139.333C302.362 136.864 302.43 134.613 302.594 132.563C303.703 118.635 309.223 113.994 310.73 112.976C310.973 112.811 311.113 112.742 311.113 112.742C311.113 112.742 311.118 112.843 311.127 113.034C311.149 113.448 311.189 114.282 311.23 115.427C311.536 123.952 311.902 149.751 305.007 148.08Z" fill="#D9935C"/>
<path d="M290.009 131.989C289.974 131.66 289.742 126.875 288.742 125.964C287.743 125.053 285.77 123.812 285.203 123.913C284.636 124.013 282.71 127.06 283.619 129.159C284.529 131.257 287.686 133.906 287.686 133.906L290.009 131.989Z" fill="#D9935C"/>
<path d="M292.059 132.546L286.625 132.762C286.445 132.769 286.293 132.636 286.285 132.464L285.852 122.608C285.844 122.436 285.984 122.291 286.165 122.284L291.599 122.068C291.779 122.061 291.932 122.194 291.939 122.366L292.372 132.222C292.38 132.394 292.24 132.539 292.059 132.546Z" fill="#F1A34F"/>
<path d="M290.647 132.602L285.718 132.798C285.399 132.81 285.129 132.574 285.115 132.27L284.703 122.894C284.69 122.59 284.938 122.333 285.258 122.32L290.187 122.124C290.507 122.111 290.777 122.347 290.79 122.652L291.202 132.028C291.216 132.332 290.967 132.589 290.647 132.602Z" fill="#D86713"/>
<path d="M284.791 124.278C284.791 124.278 286.272 122.705 287.754 123.907C289.235 125.11 287.655 127.677 286.37 128.379C285.085 129.081 284.673 129.446 284.673 129.446L284.791 124.278Z" fill="#D9935C"/>
<path d="M322.974 229.059C322.471 230.96 321.918 232.771 321.355 234.455C321.234 234.816 321.115 235.172 320.994 235.519C320.933 235.692 320.873 235.862 320.814 236.031C320.695 236.364 320.579 236.692 320.462 237.011C320.31 237.428 320.157 237.835 320.007 238.228C319.896 238.52 319.786 238.806 319.677 239.085C318.004 243.354 316.602 246.059 316.602 246.059L313.268 245.841C313.268 245.841 314.52 240.177 314.77 232.064C314.778 231.774 314.787 231.482 314.793 231.187C314.806 230.558 314.814 229.917 314.814 229.262C314.814 228.994 314.812 228.722 314.81 228.448C314.743 221.461 313.833 213.203 310.932 205.319C308.572 198.909 306.861 192.912 305.624 187.492C301.631 169.997 302.57 158.502 302.57 158.502L321.325 160.59L322.199 160.687C322.279 168.881 322.5 180.006 322.694 188.704C322.727 190.215 322.758 191.652 322.79 192.987C322.919 198.571 323.017 202.39 323.017 202.39C326.625 209.776 325.315 220.203 322.974 229.059Z" fill="#CB7D45"/>
<path d="M317.604 97.2469C317.604 97.2469 322.041 100.84 317.973 104.977C317.973 104.977 321.363 105.293 322.511 104.401C322.511 104.401 322.285 104.836 322.076 105.032C322.076 105.032 325.866 105.161 327.431 104.037C328.996 102.912 327.99 84.466 317.471 86.5284C317.471 86.5284 308.554 85.888 309.385 95.7019C310.215 105.516 306.849 105.516 306.849 105.516C306.849 105.516 307.785 105.955 308.237 105.955C308.237 105.955 308.898 105.715 309.028 105.368C309.028 105.368 308.898 105.914 308.729 106.087C308.729 106.087 312.363 106.415 314.177 105.11C315.991 103.805 318.122 99.2716 317.604 97.2469Z" fill="#233862"/>
<path d="M331.923 156.5C328.379 148.939 326.683 146.801 326.624 144.422C326.577 142.54 327.552 140.51 329.446 135.533C329.892 134.36 330.2 133.154 330.39 131.934C331.888 122.338 326.054 111.965 322.428 111.258C321.42 111.005 319.71 107.539 319.731 101.954L319.277 102.039L311.642 103.477C311.642 103.477 311.816 105.763 311.821 107.915C311.826 109.71 311.724 111.535 311.297 111.749C310.747 111.797 310.247 111.892 310.247 111.892C310.247 111.892 303.786 116.208 303.369 122.063C302.812 129.883 308.607 139.153 303.467 154.782C298.219 170.745 333.881 160.679 331.923 156.5Z" fill="#D9935C"/>
<path d="M311.642 103.477C311.642 103.477 311.816 105.762 311.821 107.915C316.093 107.801 318.351 104.093 319.277 102.039L311.642 103.477Z" fill="#CB7D45"/>
<path d="M320.065 101.248C320.065 101.248 322.304 97.8834 322.841 95.0062C323.225 92.9518 322.125 85.3376 314.081 86.434C314.081 86.434 311.745 86.653 309.549 88.064C307.802 89.1859 305.281 91.6083 308.1 98.2529L308.832 100.497L320.065 101.248Z" fill="#233862"/>
<path d="M310.215 105.516C310.215 105.516 320.323 105.674 320.33 99.6849C320.337 93.6957 321.647 89.6825 315.193 89.328C308.74 88.9736 307.483 91.2576 306.97 93.2562C306.456 95.2546 307.586 105.32 310.215 105.516Z" fill="#D9935C"/>
<path d="M310.589 89.1814C310.589 89.1814 313.357 96.2081 317.604 97.2468C321.852 98.2857 323.694 97.2033 323.694 97.2033C323.694 97.2033 320.436 94.7415 319.76 90.4441C319.76 90.4441 312.677 85.837 310.589 89.1814Z" fill="#233862"/>
<path d="M311.275 89.7518C311.275 89.7518 309.209 91.3204 308.705 92.8458C308.201 94.371 307.974 97.5106 307.012 97.4039C307.012 97.4039 304.927 92.6278 307.27 89.9261C309.755 87.0614 311.275 89.7518 311.275 89.7518Z" fill="#233862"/>
<path d="M345.069 164.532L342.035 165.398C342.035 165.398 332.024 149.599 331.114 145.488C330.817 144.15 330.089 141.472 329.24 138.471C327.482 132.257 325.214 124.653 325.214 124.653L324.467 121.575L321.919 111.078C321.919 111.078 326.798 111.552 329.652 112.687C330.597 113.062 331.317 113.51 331.569 114.036C333.666 118.42 335.759 129.488 337.23 137.382C338.05 141.782 338.675 145.197 339.002 145.921C339.912 147.94 342.693 159.05 345.069 164.532Z" fill="#D9935C"/>
<path d="M310.891 89.9891C310.891 89.9891 312.863 97.3474 318.222 99.7039C318.222 99.7039 312.863 95.1832 312.408 90.3258C311.953 85.4686 310.891 89.9891 310.891 89.9891Z" fill="#233862"/>
<path d="M333.733 227.523C332.654 238.47 327.906 245.551 327.906 245.551L326.285 246.953C326.285 246.953 324.808 238.938 323.742 229.762C322.726 221.04 321.332 211.81 319.757 208.992C317.402 204.783 315.666 196.174 314.416 187.079C312.35 172.029 311.618 155.642 311.618 155.642L330.634 154.745C332.548 157.803 333.38 162.82 333.578 168.524C333.787 174.521 333.291 181.278 332.602 187.317C331.64 195.771 330.301 202.818 329.99 204.402C329.99 204.404 329.99 204.406 329.988 204.41C329.946 204.618 330.011 204.827 330.113 205.015C333.897 212.139 334.444 220.29 333.733 227.523Z" fill="#D9935C"/>
<path d="M311.541 131.364C311.114 141.3 309.551 151.14 305.003 150.507C299.428 149.733 297.976 144.783 297.68 141.104C297.496 138.814 297.761 137.016 297.761 137.016C297.761 137.016 300.505 137.004 300.949 136.615C303.056 134.763 302.431 116.605 303.474 114.72C304.517 112.834 311.285 111.624 311.285 111.624C311.285 111.624 311.967 121.543 311.541 131.364Z" fill="#EE9849"/>
<path d="M311.541 131.364C311.114 141.3 309.551 151.14 305.003 150.507C299.428 149.733 297.976 144.783 297.68 141.104C299.048 141.038 301.458 140.721 302.416 139.332C303.786 137.343 308.063 124.543 308.063 124.543C308.063 124.543 309.745 127.417 311.541 131.364Z" fill="#E58638"/>
<path d="M322.974 229.059C322.471 230.96 321.918 232.771 321.355 234.455C321.234 234.816 321.115 235.172 320.994 235.519C320.933 235.692 320.873 235.862 320.814 236.031C320.695 236.364 320.579 236.692 320.462 237.011C320.31 237.428 320.157 237.835 320.007 238.228C319.896 238.52 319.786 238.806 319.677 239.085C318.004 243.354 316.602 246.059 316.602 246.059L313.268 245.841C313.268 245.841 314.52 240.177 314.77 232.064C314.778 231.774 314.787 231.483 314.793 231.187C314.806 230.558 314.814 229.917 314.814 229.262C314.814 228.994 314.812 228.722 314.81 228.448C314.743 221.461 313.833 213.203 310.931 205.319C308.572 198.909 306.861 192.912 305.624 187.492C307.606 187.881 309.351 187.484 314.415 187.079C314.947 187.037 317.493 190.034 320.006 194.001C320.136 199.586 323.017 202.39 323.017 202.39C326.625 209.776 325.315 220.203 322.974 229.059Z" fill="#233862"/>
<path d="M333.733 227.523C332.654 238.47 327.906 245.551 327.906 245.551L326.285 246.953C326.285 246.953 324.808 238.938 323.742 229.762C322.726 221.04 321.332 211.81 319.757 208.992C317.402 204.783 315.666 196.174 314.416 187.079C316.166 187.771 322.122 189.571 332.602 187.317C331.64 195.771 330.301 202.818 329.99 204.402C329.99 204.404 329.99 204.406 329.988 204.41C329.946 204.618 330.011 204.827 330.113 205.015C333.897 212.139 334.444 220.29 333.733 227.523Z" fill="#2B478B"/>
<path d="M337.375 174.255C337.375 174.255 333.396 175.425 327.535 176.196C320.278 177.15 310.134 177.494 301.074 174.255C301.074 174.255 300.327 161.431 302.474 154.746C304.62 148.06 305.624 144.861 305.624 144.861C305.624 144.861 314.225 146.913 322.96 145.322C324.187 145.1 325.416 144.804 326.624 144.421C326.624 144.421 332.012 155.303 333.494 159.967C334.975 164.63 337.375 174.255 337.375 174.255Z" fill="#2B478B"/>
<path d="M337.375 174.255C337.375 174.255 333.396 175.424 327.535 176.196C316.788 170.399 322.028 146.004 322.028 146.004C322.347 145.758 322.659 145.531 322.96 145.322C324.187 145.1 325.416 144.804 326.623 144.421C326.623 144.421 332.012 155.303 333.494 159.966C334.975 164.63 337.375 174.255 337.375 174.255Z" fill="#233862"/>
<path d="M346.173 149.846C346.173 152.342 343.496 153.876 340.624 154.622C337.861 155.341 334.92 155.331 334 154.746C332.412 153.733 329.825 142.481 329.07 139.056C328.934 138.435 328.857 138.072 328.857 138.072C328.857 138.072 326.794 142.755 326.729 143.192C326.7 143.388 326.675 143.658 326.656 143.896C326.635 144.184 326.622 144.422 326.622 144.422C326.622 144.422 315.425 149.798 305.624 144.861C305.624 144.861 301.64 122.956 303.369 119.185C304.229 117.312 308.712 113.446 310.506 111.779C310.909 111.404 310.869 110.662 310.713 109.983C310.583 109.409 311.126 108.905 311.722 109.052C312.876 109.338 314.952 109.289 317.176 108.594C318.284 108.25 319.427 107.746 320.51 107.044C320.825 106.84 321.253 107.028 321.3 107.387C321.469 108.693 321.885 111.078 322.642 111.078C323.685 111.072 330.803 111.904 331.325 112.741C331.506 113.033 333.357 117.016 335.693 122.293C335.693 122.293 335.696 122.297 335.698 122.307C340.083 132.205 346.173 146.653 346.173 149.846Z" fill="#EE9849"/>
<path d="M328.857 138.072C328.857 138.072 326.794 142.755 326.729 143.192C326.7 143.388 326.675 143.658 326.656 143.896C325.659 144.67 324.453 145.258 323.224 145.613C319.734 146.619 318.217 140.255 318.425 137.079C318.634 133.904 323.57 124.841 325.214 124.652C326.856 124.466 328.857 138.072 328.857 138.072Z" fill="#E58638"/>
<path d="M329.07 139.056C328.934 138.435 328.857 138.072 328.857 138.072C328.965 138.407 329.036 138.734 329.07 139.056Z" fill="#E58638"/>
<path d="M314.758 147.275C308.386 147.275 305.76 145.189 305.566 145.047L305.153 142.193C305.215 142.236 313.764 147.119 326.995 142.442L326.714 144.605C321.626 146.404 318.067 147.275 314.758 147.275Z" fill="#B64C41"/>
<path d="M346.173 149.846C346.173 152.342 343.496 153.876 340.624 154.622C344.583 150.138 335.919 122.999 335.698 122.307C340.083 132.205 346.173 146.653 346.173 149.846Z" fill="#E58638"/>
<path d="M322.642 111.078C322.642 111.078 317.312 114.289 313.279 113.529C313.279 113.529 312.311 112.948 313.646 112.362C314.9 111.815 317.817 110.193 317.176 108.594C318.284 108.25 319.427 107.746 320.51 107.044C320.825 106.839 321.253 107.028 321.3 107.387C321.47 108.693 321.885 111.078 322.642 111.078Z" fill="#E58638"/>
<path d="M318.522 248.718H316.393C315.681 248.611 315.154 248.415 314.423 248.324C313.313 248.186 312.802 248.618 312.7 248.718C312.687 248.731 312.681 248.738 312.681 248.738H303.641C303.413 248.43 303.632 247.714 303.846 247.187C303.99 246.829 304.303 246.558 304.692 246.451C305.65 246.188 307.54 245.952 309.271 244.462C310.245 243.625 313.973 241.384 313.973 241.384L313.992 241.38C314.074 241.382 314.464 241.496 316.16 242.857C317.036 243.56 318.53 241.865 318.53 241.865C318.53 241.865 318.811 242.086 319.02 242.497C319.189 242.821 319.312 243.267 319.215 243.817C319.079 244.592 319.515 246.032 319.862 247.006C320.073 247.596 320.251 248.014 320.251 248.014C320.251 248.014 320.352 248.501 318.522 248.718Z" fill="#233862"/>
<path d="M319.021 242.497C318.512 242.837 317.44 243.508 316.729 243.596C315.768 243.716 313.973 241.384 313.973 241.384L313.992 241.38C314.074 241.382 314.464 241.496 316.16 242.857C317.036 243.56 318.53 241.865 318.53 241.865C318.53 241.865 318.811 242.086 319.021 242.497Z" fill="#466AA5"/>
<path d="M318.522 248.718H316.393C315.681 248.611 315.154 248.415 314.423 248.324C313.313 248.186 312.802 248.618 312.7 248.718C312.687 248.731 312.681 248.738 312.681 248.738H303.641C303.413 248.43 303.632 247.714 303.846 247.187C304.12 246.955 304.197 248.196 304.349 248.394C304.501 248.591 311.723 248.466 312.141 248.177C312.558 247.888 313.809 247.383 315.553 247.78C317.072 248.125 319.309 247.241 319.862 247.006C320.073 247.596 320.251 248.014 320.251 248.014C320.251 248.014 320.352 248.501 318.522 248.718Z" fill="#466AA5"/>
<path d="M329.877 248.718H327.749C327.037 248.611 326.51 248.415 325.779 248.324C324.669 248.186 324.158 248.618 324.056 248.718C324.042 248.731 324.036 248.738 324.036 248.738H314.997C314.769 248.43 314.987 247.714 315.201 247.187C315.345 246.829 315.659 246.558 316.048 246.451C317.006 246.188 318.896 245.952 320.627 244.462C321.601 243.625 325.329 241.384 325.329 241.384L325.348 241.38C325.43 241.382 325.82 241.496 327.516 242.857C328.392 243.56 329.886 241.865 329.886 241.865C329.886 241.865 330.167 242.086 330.376 242.497C330.544 242.821 330.667 243.267 330.57 243.817C330.435 244.592 330.87 246.032 331.218 247.006C331.429 247.596 331.606 248.014 331.606 248.014C331.606 248.014 331.708 248.501 329.877 248.718Z" fill="#233862"/>
<path d="M330.376 242.497C329.868 242.837 328.796 243.508 328.085 243.596C327.125 243.716 325.329 241.384 325.329 241.384L325.348 241.38C325.43 241.382 325.82 241.496 327.516 242.857C328.392 243.56 329.886 241.865 329.886 241.865C329.886 241.865 330.167 242.086 330.376 242.497Z" fill="#466AA5"/>
<path d="M329.877 248.718H327.749C327.037 248.611 326.51 248.415 325.779 248.324C324.669 248.186 324.158 248.618 324.056 248.718C324.042 248.731 324.036 248.738 324.036 248.738H314.997C314.769 248.43 314.987 247.714 315.201 247.187C315.476 246.955 315.553 248.196 315.705 248.394C315.857 248.591 323.079 248.466 323.497 248.177C323.914 247.888 325.165 247.383 326.909 247.78C328.427 248.125 330.664 247.241 331.218 247.006C331.429 247.596 331.606 248.014 331.606 248.014C331.606 248.014 331.708 248.501 329.877 248.718Z" fill="#466AA5"/>
<path d="M352.588 176.833C352.378 175.828 351.635 175.01 350.625 174.654C348.986 174.076 346.304 173.555 343.006 174.477C337.44 176.033 336.895 179.288 337.263 181.629C337.631 183.97 336.54 187.701 336.7 190.356C336.86 193.01 337.66 199.679 341.781 199.329C345.904 198.979 359.19 195.582 359.19 195.582C359.19 195.582 361.485 191.427 356.77 185.409C353.973 181.838 352.955 178.585 352.588 176.833Z" fill="#D37129"/>
<path d="M350.037 173.765L348.934 173.859C348.934 173.858 348.807 173.134 348.302 172.679C347.912 172.329 347.374 172.202 346.704 172.306C346.069 172.403 345.612 172.68 345.381 173.126C345.054 173.754 345.235 174.563 345.237 174.571L344.163 174.808C344.149 174.752 343.838 173.438 344.402 172.334C344.789 171.571 345.481 171.132 346.438 170.961C347.426 170.81 348.261 171.039 348.921 171.643C349.832 172.475 350.029 173.713 350.037 173.765Z" fill="#D37129"/>
<path d="M361.921 194.989C361.921 194.989 348.633 198.394 344.508 198.737C340.386 199.094 339.584 192.425 339.433 189.761C339.27 187.114 340.358 183.381 339.995 181.035C339.92 180.592 339.879 180.099 339.912 179.604C340.018 177.516 341.248 175.143 345.73 173.891C349.037 172.964 351.711 173.493 353.357 174.071C354.361 174.429 355.113 175.243 355.321 176.245C355.37 176.449 355.414 176.698 355.472 176.943C355.946 178.806 357.04 181.698 359.503 184.825C364.22 190.837 361.921 194.989 361.921 194.989Z" fill="#F1A34F"/>
<path opacity="0.4" d="M341.439 190.322L349.448 188.598C349.448 188.598 351.311 194.053 347.527 195.047C343.742 196.041 342.172 193.929 341.439 190.322Z" fill="#D86713"/>
<path d="M341.439 190.322C341.439 190.322 343.287 192.015 345.784 191.418C348.281 190.821 349.448 188.598 349.448 188.598L341.439 190.322Z" fill="#D37129"/>
<path opacity="0.4" d="M351.073 188.248L359.082 186.524C359.082 186.524 360.945 191.98 357.16 192.974C353.376 193.967 351.806 191.855 351.073 188.248Z" fill="#D86713"/>
<path d="M351.073 188.248C351.073 188.248 352.921 189.942 355.418 189.345C357.914 188.748 359.082 186.524 359.082 186.524L351.073 188.248Z" fill="#D37129"/>
<path opacity="0.4" d="M355.321 176.245C355.37 176.449 355.414 176.698 355.472 176.943C354.413 179.021 352.407 181.677 349.01 182.293C343.234 183.364 339.912 179.604 339.912 179.604C340.018 177.516 341.248 175.143 345.73 173.891C349.037 172.964 351.711 173.493 353.357 174.071C354.361 174.428 355.113 175.242 355.321 176.245Z" fill="#D86713"/>
<path d="M349.092 183.444C348.73 183.522 348.367 183.304 348.285 182.96L348.15 182.392C348.068 182.048 348.297 181.703 348.659 181.625C349.02 181.547 349.383 181.765 349.465 182.109L349.6 182.677C349.682 183.021 349.453 183.366 349.092 183.444Z" fill="#D86713"/>
<path d="M344.854 164.052C344.854 164.052 345.776 166.12 346.737 166.697C347.698 167.274 348.611 168.659 348.81 169.775C349.176 171.823 347.526 173.093 346.313 173.093C345.099 173.093 343.94 171.519 343.226 167.761C343.187 167.554 342.035 165.398 342.035 165.398L344.854 164.052Z" fill="#D9935C"/>
<path d="M186.204 86.491C184.755 84.3971 178.998 85.5692 173.348 89.1088C167.697 92.649 164.291 97.2163 165.741 99.3104C167.191 101.405 172.947 100.232 178.598 96.6927C184.249 93.1525 187.655 88.5852 186.204 86.491Z" fill="#233862"/>
<path d="M156.683 164.3L157.799 164.364C157.789 164.34 158.233 145.83 159.94 138.341C163.12 124.389 171.431 113.466 171.523 113.373L169.526 112.764C169.427 112.865 167.851 115.187 165.619 119.473C163.562 123.421 160.254 129.999 158.794 137.66C157.352 145.226 156.642 164.2 156.683 164.3Z" fill="#BC3F3F"/>
<path d="M176.846 86.3267C176.846 86.3267 169.554 84.8468 166.054 90.4884C162.553 96.1303 162.359 105.934 160.025 109.14C157.692 112.346 153.576 125.879 157.951 128.907C162.327 131.935 189.279 128.796 190.792 127.415C192.305 126.034 190.702 111.823 188.068 107.707C185.434 103.591 191.851 84.2301 176.846 86.3267Z" fill="#A53D38"/>
<path d="M187.709 148.08C195.96 146.083 205.03 133.906 205.03 133.906L202.707 131.989C200.302 134.687 190.301 139.333 190.301 139.333C190.354 136.864 190.287 134.613 190.123 132.563C189.013 118.635 183.493 113.994 181.986 112.976C181.743 112.811 181.604 112.742 181.604 112.742C181.604 112.742 181.598 112.843 181.589 113.034C181.567 113.448 181.527 114.282 181.486 115.427C181.18 123.952 180.814 149.751 187.709 148.08Z" fill="#FFB27D"/>
<path d="M202.707 131.989C202.742 131.66 202.974 126.875 203.974 125.964C204.973 125.053 206.946 123.812 207.513 123.913C208.08 124.013 210.006 127.06 209.096 129.159C208.187 131.257 205.03 133.906 205.03 133.906L202.707 131.989Z" fill="#FFB27D"/>
<path d="M169.742 229.059C170.245 230.96 170.798 232.771 171.361 234.455C171.482 234.816 171.601 235.172 171.722 235.519C171.783 235.692 171.843 235.862 171.902 236.031C172.021 236.364 172.138 236.692 172.254 237.011C172.407 237.428 172.559 237.835 172.709 238.228C172.82 238.52 172.93 238.806 173.039 239.085C174.712 243.354 176.114 246.059 176.114 246.059L179.448 245.841C179.448 245.841 178.196 240.177 177.946 232.064C177.937 231.774 177.929 231.483 177.923 231.187C177.91 230.558 177.902 229.917 177.902 229.262C177.902 228.994 177.904 228.722 177.906 228.448C177.973 221.461 178.883 213.203 181.785 205.319C184.144 198.909 185.855 192.912 187.092 187.492C191.085 169.997 190.146 158.502 190.146 158.502L171.391 160.59L170.517 160.687C170.437 168.881 170.216 180.006 170.022 188.704C169.989 190.215 169.958 191.652 169.926 192.987C169.797 198.571 169.699 202.39 169.699 202.39C166.091 209.776 167.402 220.203 169.742 229.059Z" fill="#FFB27D"/>
<path d="M160.793 156.5C164.338 148.939 166.033 146.801 166.092 144.422C166.139 142.54 165.164 140.51 163.27 135.533C162.824 134.36 162.516 133.154 162.326 131.934C160.828 122.338 166.662 111.965 170.287 111.258C171.296 111.005 173.006 107.539 172.985 101.954L173.44 102.039L181.074 103.477C181.074 103.477 180.9 105.763 180.895 107.915C180.89 109.71 180.992 111.535 181.419 111.749C181.969 111.797 187.963 112.816 189.052 114.452C190.123 116.06 188.93 116.208 189.347 122.063C189.904 129.883 184.108 139.153 189.249 154.782C194.496 170.745 158.835 160.679 160.793 156.5Z" fill="#FFB27D"/>
<path d="M181.074 103.477C181.074 103.477 180.9 105.762 180.895 107.915C176.623 107.801 174.365 104.093 173.44 102.039L181.074 103.477Z" fill="#EF9E67"/>
<path d="M182.501 105.516C182.501 105.516 172.393 105.674 172.386 99.6849C172.379 93.6957 171.069 89.6825 177.523 89.328C183.976 88.9736 185.233 91.2576 185.746 93.2562C186.26 95.2546 185.13 105.32 182.501 105.516Z" fill="#FFB27D"/>
<path d="M182.127 89.1814C182.127 89.1814 179.359 96.2081 175.112 97.2468C170.865 98.2858 169.022 97.2033 169.022 97.2033C169.022 97.2033 172.28 94.7415 172.956 90.4441C172.956 90.4441 180.039 85.837 182.127 89.1814Z" fill="#A53D38"/>
<path d="M181.441 89.7518C181.441 89.7518 183.508 91.3204 184.012 92.8458C184.516 94.371 184.742 97.5107 185.704 97.4039C185.704 97.4039 187.789 92.6278 185.446 89.9261C182.961 87.0614 181.441 89.7518 181.441 89.7518Z" fill="#A53D38"/>
<path d="M147.647 164.532L150.682 165.398C150.682 165.398 160.692 149.599 161.602 145.488C161.899 144.15 162.627 141.472 163.476 138.471C165.234 132.257 167.502 124.653 167.502 124.653L168.249 121.575L170.797 111.078C170.797 111.078 165.918 111.552 163.064 112.687C162.119 113.062 161.398 113.51 161.147 114.036C159.05 118.42 156.957 129.488 155.486 137.382C154.666 141.782 154.041 145.197 153.714 145.921C152.804 147.94 150.023 159.05 147.647 164.532Z" fill="#FFB27D"/>
<path d="M181.825 89.9891C181.825 89.9891 179.853 97.3474 174.494 99.7039C174.494 99.7039 179.853 95.1832 180.308 90.3259C180.763 85.4686 181.825 89.9891 181.825 89.9891Z" fill="#A53D38"/>
<path d="M158.984 227.523C160.062 238.47 164.811 245.551 164.811 245.551L166.432 246.953C166.432 246.953 167.909 238.938 168.975 229.762C169.991 221.04 171.384 211.81 172.959 208.992C175.315 204.783 177.051 196.174 178.3 187.079C180.366 172.029 181.098 155.642 181.098 155.642L162.082 154.745C160.169 157.803 159.336 162.82 159.138 168.524C158.929 174.521 159.426 181.278 160.114 187.317C161.076 195.771 162.415 202.818 162.726 204.402C162.726 204.404 162.726 204.406 162.728 204.41C162.77 204.618 162.706 204.827 162.603 205.015C158.819 212.139 158.272 220.29 158.984 227.523Z" fill="#FFB27D"/>
<path d="M195.035 141.104C194.74 144.784 193.287 149.733 187.714 150.507C185.742 150.781 184.333 149.088 183.331 146.271C182.022 142.59 181.415 136.993 181.174 131.364C180.943 126.033 181.038 120.67 181.174 116.884C183.461 116.638 187.658 114.795 188.945 114.337C188.982 114.374 189.019 114.413 189.052 114.452C189.079 114.481 189.104 114.513 189.127 114.544C189.172 114.603 189.209 114.661 189.242 114.72C189.798 115.724 189.88 121.36 190.156 126.68C190.395 131.336 190.784 135.749 191.766 136.615C192.212 137.004 194.953 137.017 194.953 137.017C194.953 137.017 195.22 138.815 195.035 141.104Z" fill="#FFB93E"/>
<path d="M181.175 131.364C181.603 141.3 183.165 151.14 187.713 150.507C193.288 149.733 194.74 144.783 195.036 141.104C193.668 141.038 191.258 140.721 190.301 139.332C188.93 137.343 184.653 124.543 184.653 124.543C184.653 124.543 182.971 127.417 181.175 131.364Z" fill="#FFA412"/>
<path d="M187.092 144.861C187.092 144.861 175.905 147.531 166.092 144.422C166.092 144.422 160.705 155.303 159.222 159.967C157.74 164.63 146.543 224.316 146.543 224.316C146.543 224.316 171.185 231.096 187.563 225.241C187.563 225.241 192.389 161.431 190.242 154.745C188.095 148.06 187.092 144.861 187.092 144.861Z" fill="#2B478B"/>
<path d="M190.156 126.639C189.338 134.331 187.092 144.766 187.092 144.766C185.853 145.389 184.591 145.846 183.331 146.171C174.639 148.417 166.094 144.329 166.094 144.329C166.094 144.329 166.081 144.091 166.059 143.803C166.042 143.565 166.016 143.298 165.987 143.1C165.923 142.665 163.86 137.996 163.86 137.996C163.86 137.996 163.782 138.359 163.646 138.979C162.891 142.392 160.303 153.61 158.716 154.621C157.796 155.204 154.854 155.213 152.093 154.497C149.219 153.754 146.543 152.223 146.543 149.736C146.543 146.551 152.632 132.148 157.019 122.279C157.021 122.268 157.023 122.265 157.023 122.265C159.358 117.003 160.715 113.343 162.501 112.934C162.501 112.934 174.518 117.586 181.174 116.873C183.461 116.627 187.658 114.79 188.945 114.333C188.982 114.37 189.019 114.409 189.052 114.447C189.079 114.477 189.104 114.508 189.127 114.54C189.153 114.574 189.176 114.608 189.198 114.641C190.173 116.008 190.019 118.276 190.069 119.141C190.166 120.831 190.522 123.196 190.156 126.639Z" fill="#FFB93E"/>
<path d="M163.859 138.072C163.859 138.072 165.922 142.755 165.987 143.192C166.016 143.388 166.041 143.658 166.06 143.896C167.057 144.67 168.263 145.258 169.492 145.613C172.982 146.619 174.499 140.255 174.29 137.079C174.082 133.904 169.146 124.841 167.501 124.652C165.86 124.466 163.859 138.072 163.859 138.072Z" fill="#FFA412"/>
<path d="M163.646 139.056C163.782 138.435 163.859 138.072 163.859 138.072C163.75 138.407 163.68 138.734 163.646 139.056Z" fill="#E58638"/>
<path d="M178.057 146.89C184.428 146.89 186.956 145.189 187.15 145.047L187.563 142.193C187.501 142.236 178.952 147.119 165.722 142.442L166.002 144.605C171.09 146.404 174.747 146.89 178.057 146.89Z" fill="#163560"/>
<path d="M146.543 149.846C146.543 152.342 149.22 153.876 152.093 154.622C148.133 150.138 156.797 122.999 157.018 122.307C152.633 132.205 146.543 146.653 146.543 149.846Z" fill="#FFA412"/>
<path d="M174.195 248.718H176.323C177.036 248.611 177.562 248.415 178.293 248.324C179.403 248.186 179.915 248.618 180.016 248.718C180.03 248.731 180.036 248.738 180.036 248.738H189.076C189.303 248.43 189.085 247.714 188.871 247.187C188.727 246.829 188.413 246.558 188.025 246.451C187.066 246.188 185.176 245.952 183.446 244.462C182.472 243.625 178.744 241.384 178.744 241.384L178.724 241.38C178.642 241.382 178.253 241.496 176.557 242.857C175.68 243.56 174.186 241.865 174.186 241.865C174.186 241.865 173.906 242.086 173.696 242.497C173.528 242.821 173.405 243.267 173.502 243.817C173.637 244.592 173.202 246.032 172.854 247.006C172.643 247.596 172.466 248.014 172.466 248.014C172.466 248.014 172.364 248.501 174.195 248.718Z" fill="#233862"/>
<path d="M173.696 242.497C174.204 242.837 175.276 243.508 175.987 243.596C176.948 243.716 178.743 241.384 178.743 241.384L178.724 241.38C178.642 241.382 178.252 241.496 176.556 242.857C175.68 243.56 174.186 241.865 174.186 241.865C174.186 241.865 173.905 242.086 173.696 242.497Z" fill="#466AA5"/>
<path d="M174.195 248.718H176.323C177.036 248.611 177.562 248.415 178.293 248.324C179.403 248.186 179.915 248.618 180.016 248.718C180.03 248.731 180.036 248.738 180.036 248.738H189.076C189.303 248.43 189.085 247.714 188.871 247.187C188.596 246.955 188.519 248.196 188.367 248.394C188.216 248.591 180.993 248.466 180.576 248.177C180.159 247.888 178.907 247.383 177.163 247.78C175.645 248.125 173.408 247.241 172.854 247.006C172.643 247.596 172.466 248.014 172.466 248.014C172.466 248.014 172.364 248.501 174.195 248.718Z" fill="#466AA5"/>
<path d="M162.839 248.718H164.967C165.68 248.611 166.206 248.415 166.937 248.324C168.047 248.186 168.559 248.618 168.66 248.718C168.674 248.731 168.68 248.738 168.68 248.738H177.72C177.947 248.43 177.729 247.714 177.515 247.187C177.371 246.829 177.057 246.558 176.669 246.451C175.71 246.188 173.82 245.952 172.09 244.462C171.116 243.625 167.388 241.384 167.388 241.384L167.368 241.38C167.286 241.382 166.896 241.496 165.201 242.857C164.324 243.56 162.83 241.865 162.83 241.865C162.83 241.865 162.55 242.086 162.34 242.497C162.172 242.821 162.049 243.267 162.146 243.817C162.281 244.592 161.846 246.032 161.498 247.006C161.287 247.596 161.11 248.014 161.11 248.014C161.11 248.014 161.008 248.501 162.839 248.718Z" fill="#233862"/>
<path d="M162.34 242.497C162.848 242.837 163.92 243.508 164.632 243.596C165.592 243.716 167.388 241.384 167.388 241.384L167.368 241.38C167.286 241.382 166.896 241.496 165.201 242.857C164.324 243.56 162.83 241.865 162.83 241.865C162.83 241.865 162.549 242.086 162.34 242.497Z" fill="#466AA5"/>
<path d="M162.839 248.718H164.967C165.68 248.611 166.206 248.415 166.937 248.324C168.047 248.186 168.559 248.618 168.66 248.718C168.674 248.731 168.68 248.738 168.68 248.738H177.72C177.947 248.43 177.729 247.714 177.515 247.187C177.24 246.955 177.163 248.196 177.012 248.394C176.86 248.591 169.637 248.466 169.22 248.177C168.803 247.888 167.551 247.383 165.807 247.78C164.289 248.125 162.052 247.241 161.498 247.006C161.287 247.596 161.11 248.014 161.11 248.014C161.11 248.014 161.008 248.501 162.839 248.718Z" fill="#466AA5"/>
<path d="M147.862 164.052C147.862 164.052 146.94 166.12 145.979 166.697C145.018 167.274 144.106 168.659 143.906 169.775C143.54 171.823 145.19 173.093 146.404 173.093C147.617 173.093 148.777 171.519 149.49 167.761C149.529 167.554 150.681 165.398 150.681 165.398L147.862 164.052Z" fill="#FFB27D"/>
<path d="M207.296 121.319L207.154 122.706L206.707 127.075L206.421 129.873H200.556L200.197 127.075L199.632 122.706L199.454 121.319H207.296Z" fill="#EE9849"/>
<path d="M207.713 121.319H198.992L199.162 120.486H207.499L207.713 121.319Z" fill="#D17A33"/>
<path d="M207.154 122.706L206.707 127.075H200.197L199.632 122.706H207.154Z" fill="#D17A33"/>
<path d="M207.925 124.278C207.925 124.278 206.444 122.705 204.963 123.907C203.481 125.11 205.061 127.677 206.346 128.379C207.631 129.081 208.043 129.446 208.043 129.446L207.925 124.278Z" fill="#FFB27D"/>
<path d="M174.309 164.385L173.195 164.306C173.208 164.283 175.376 145.761 174.739 138.072C173.553 123.744 166.855 111.782 166.778 111.677L168.843 111.326C168.926 111.439 170.161 113.958 171.77 118.52C173.252 122.723 175.603 129.71 175.971 137.539C176.334 145.271 174.364 164.291 174.309 164.385Z" fill="#BC3F3F"/>
<path d="M160.804 160.311C160.804 160.311 161.887 157.776 163.608 157.144L172.398 158.719C172.398 158.719 170.228 160.683 170.024 161.964L160.804 160.311Z" fill="#D2E4FF"/>
<path d="M171.84 174.619L156.816 171.926C156.11 171.799 155.646 171.152 155.779 170.481L157.655 161.006C157.789 160.335 158.469 159.893 159.175 160.019L174.199 162.713C174.905 162.839 175.369 163.486 175.236 164.158L173.359 173.632C173.226 174.304 172.546 174.745 171.84 174.619Z" fill="#912F2F"/>
<path d="M166.431 155.125L159.246 155.065L159.165 163.826L166.35 163.886L166.431 155.125Z" fill="#E58638"/>
<path d="M166.034 155.108L158.849 155.049L158.769 163.81L165.954 163.869L166.034 155.108Z" fill="#EE9849"/>
<path d="M170.398 160.343L164.693 156.189L159.095 163.146L164.8 167.3L170.398 160.343Z" fill="#578E9B"/>
<path d="M169.75 159.879L164.049 155.725L158.456 162.682L164.156 166.836L169.75 159.879Z" fill="#74ACBE"/>
<path d="M168.169 173.961L153.784 171.382C152.902 171.224 152.321 170.415 152.488 169.576L154.244 160.709C154.411 159.87 155.261 159.318 156.143 159.476L170.528 162.055C171.411 162.213 171.991 163.022 171.825 163.861L170.068 172.728C169.902 173.567 169.052 174.119 168.169 173.961Z" fill="#BC3F3F"/>
<path d="M164.769 94.1117C164.769 94.1117 160.17 85.4045 166.596 81.9624C173.023 78.5205 177.726 79.8722 181.262 84.0814L164.769 94.1117Z" fill="#233862"/>
<path d="M190.658 83.1244C189.336 81.1082 184.708 81.4338 179.123 83.6091C176.939 84.4582 174.614 85.5919 172.28 86.9756C169.377 88.6976 166.849 90.5827 164.866 92.4268C161.167 95.8671 159.363 99.1596 160.56 100.987C160.928 101.544 161.476 101.905 162.301 102.114C163.119 100.436 165.47 98.865 166.135 97.558C167.076 95.7103 169.455 92.3619 173.809 89.7779C177.153 87.7932 180.48 86.6258 182.769 86.4853C184.101 86.404 185.083 86.6685 185.515 87.3271C185.851 87.8411 185.816 88.5367 185.468 89.3413C185.795 89.863 186.165 90.5992 186.47 91.5758C190.09 88.1763 191.844 84.9319 190.658 83.1244Z" fill="#2B478B"/>
<path d="M342.035 22.406C327.239 22.406 315.201 33.8565 315.201 47.9311C315.201 62.0056 327.239 73.456 342.035 73.456C356.832 73.456 368.869 62.0056 368.869 47.9311C368.869 33.8565 356.832 22.406 342.035 22.406ZM342.035 71.7915C328.204 71.7915 316.952 61.0877 316.952 47.9311C316.952 34.7744 328.204 24.0706 342.035 24.0706C355.867 24.0706 367.119 34.7744 367.119 47.9311C367.119 61.0877 355.867 71.7915 342.035 71.7915Z" fill="#F9DDBF"/>
<path d="M342.035 28.5806C342.626 28.5806 343.105 28.1252 343.105 27.5632C343.105 27.0012 342.626 26.5458 342.035 26.5458C341.444 26.5458 340.966 27.0012 340.966 27.5632C340.966 28.125 341.444 28.5806 342.035 28.5806Z" fill="#F9DDBF"/>
<path d="M342.035 67.6099C341.444 67.6099 340.966 68.0655 340.966 68.6273C340.966 69.1893 341.444 69.6446 342.035 69.6446C342.626 69.6446 343.105 69.1893 343.105 68.6273C343.105 68.0655 342.626 67.6099 342.035 67.6099Z" fill="#F9DDBF"/>
<path d="M362.55 47.0779C361.96 47.0779 361.481 47.5333 361.481 48.0953C361.481 48.6571 361.96 49.1127 362.55 49.1127C363.141 49.1127 363.62 48.6573 363.62 48.0953C363.62 47.5333 363.141 47.0779 362.55 47.0779Z" fill="#F9DDBF"/>
<path d="M352.018 64.2525C351.61 64.6591 351.626 65.3032 352.054 65.6909C352.481 66.0788 353.158 66.0634 353.566 65.6568C353.973 65.2502 353.957 64.6062 353.53 64.2186C353.102 63.8307 352.425 63.846 352.018 64.2525Z" fill="#F9DDBF"/>
<path d="M359.018 57.923C358.611 58.3298 358.627 58.9738 359.054 59.3616C359.482 59.7493 360.158 59.734 360.566 59.3275C360.974 58.9209 360.958 58.2768 360.53 57.8891C360.103 57.5013 359.426 57.5164 359.018 57.923Z" fill="#F9DDBF"/>
<path d="M360.256 39.3007C360.789 39.057 361.012 38.449 360.756 37.9426C360.5 37.4364 359.86 37.2238 359.328 37.4675C358.796 37.7114 358.572 38.3194 358.829 38.8256C359.085 39.332 359.724 39.5446 360.256 39.3007Z" fill="#F9DDBF"/>
<path d="M353.372 30.617C352.875 30.3122 352.213 30.4479 351.893 30.92C351.573 31.3922 351.715 32.0218 352.212 32.3264C352.708 32.6312 353.37 32.4955 353.69 32.0234C354.011 31.5513 353.868 30.9216 353.372 30.617Z" fill="#F9DDBF"/>
<path d="M323.07 46.7372C322.48 46.7372 322.001 47.1926 322.001 47.7546C322.001 48.3164 322.479 48.772 323.07 48.772C323.661 48.772 324.14 48.3166 324.14 47.7546C324.14 47.1924 323.661 46.7372 323.07 46.7372Z" fill="#F9DDBF"/>
<path d="M332.091 63.8776C331.664 64.2655 331.648 64.9094 332.055 65.3161C332.463 65.7227 333.14 65.738 333.568 65.3502C333.995 64.9625 334.011 64.3184 333.604 63.9119C333.196 63.5051 332.518 63.4898 332.091 63.8776Z" fill="#F9DDBF"/>
<path d="M325.091 57.5481C324.663 57.9358 324.647 58.5797 325.055 58.9864C325.462 59.393 326.139 59.4085 326.567 59.0205C326.995 58.6328 327.01 57.9887 326.603 57.5822C326.195 57.1758 325.518 57.1605 325.091 57.5481Z" fill="#F9DDBF"/>
<path d="M325.365 38.9599C325.897 39.2036 326.536 38.991 326.792 38.4847C327.049 37.9785 326.825 37.3705 326.293 37.1267C325.761 36.8828 325.122 37.0956 324.865 37.6018C324.609 38.1082 324.832 38.716 325.365 38.9599Z" fill="#F9DDBF"/>
<path d="M332.249 30.2762C331.753 30.5808 331.61 31.2106 331.931 31.6827C332.251 32.1549 332.913 32.2904 333.409 31.9858C333.905 31.681 334.048 31.0513 333.728 30.5794C333.407 30.1071 332.745 29.9714 332.249 30.2762Z" fill="#F9DDBF"/>
<path d="M352.117 40.4684L343.375 46.215C343.344 46.1965 343.311 46.1794 343.278 46.164L342.34 30.4543V46.1656C341.986 46.3315 341.741 46.6771 341.741 47.078C341.741 47.64 342.22 48.0954 342.811 48.0954C343.402 48.0954 343.881 47.6398 343.881 47.078C343.881 47.0267 343.875 46.9764 343.868 46.927L352.117 40.4684Z" fill="#F9DDBF"/>
<path d="M499.433 250H0.566531C0.254883 250 0 249.758 0 249.461V249.277C0 248.981 0.254883 248.739 0.566531 248.739H499.433C499.745 248.739 500 248.981 500 249.277V249.461C500 249.758 499.745 250 499.433 250Z" fill="#2E3552"/>
</svg>
